P2
64 64
255
0 0 0 0 1 24 64 109 120 123 120 123 121 113 76 33 3 
0 0 0 0 0 0 0 0 0 0 0 0 0 0 0 0 0 
0 0 0 0 0 0 0 0 11 42 72 93 99 97 83 57 27 
2 0 0 0 0 0 0 0 0 0 0 0 0 0 0 0 1 
30 93 163 213 205 166 144 157 196 215 183 112 43 5 0 0 0 
0 0 0 0 0 0 0 0 0 0 0 0 0 0 0 0 0 
0 0 4 36 84 138 183 211 222 217 194 155 107 50 11 0 0 
0 0 0 0 0 0 0 0 0 0 0 0 24 94 180 204 117 
7 85 115 99 31 81 187 198 118 37 0 0 0 0 0 0 0 
0 0 0 0 0 0 0 0 0 0 0 0 0 0 3 42 116 
187 213 179 128 106 116 159 203 205 140 63 12 0 0 0 0 0 
0 0 0 0 0 0 0 3 64 163 203 71 113 208 223 217 221 
217 149 16 176 190 90 17 0 0 0 0 0 0 0 0 0 0 
0 0 0 0 0 0 0 0 0 0 33 112 197 181 65 55 130 
153 142 87 18 147 208 144 55 5 0 0 0 0 0 0 0 0 
0 0 0 29 117 213 113 115 212 164 113 98 104 146 207 157 51 
207 145 49 0 0 0 0 0 0 0 0 0 0 0 0 0 0 
0 0 0 0 0 9 79 183 186 20 153 214 207 193 200 215 186 
52 138 208 119 34 0 0 0 0 0 0 0 0 0 0 0 58 
157 203 8 208 162 73 19 0 8 50 134 209 74 163 193 79 0 
0 0 0 0 0 0 0 0 0 0 0 0 0 0 0 0 0 
0 37 130 214 76 149 207 140 97 85 91 123 185 188 13 187 176 
67 0 0 0 0 0 0 0 0 0 0 0 81 188 165 87 223 
111 17 0 0 0 5 89 195 151 107 221 99 0 0 0 0 0 
0 0 0 0 0 0 0 0 0 0 0 0 0 0 66 171 191 
38 216 144 51 6 0 2 34 114 203 128 124 215 94 0 0 0 
0 0 0 0 0 0 0 0 89 200 144 115 217 98 0 0 0 
0 0 78 178 172 85 231 104 0 0 0 0 0 0 0 0 0 
0 0 0 0 0 0 0 0 0 0 86 195 154 102 220 104 7 
0 0 0 1 76 174 183 75 237 106 0 0 0 0 0 0 0 
0 0 0 0 84 192 158 97 222 106 10 0 0 0 3 86 189 
157 100 224 100 0 0 0 0 0 0 0 0 0 0 0 0 0 
0 0 0 0 0 0 87 198 148 109 219 101 4 0 0 0 0 
72 169 189 70 239 107 0 0 0 0 0 0 0 0 0 0 0 
62 164 198 25 215 151 56 8 0 4 41 125 209 92 151 199 85 
0 0 0 0 0 0 0 0 0 0 0 0 0 0 0 0 0 
0 0 74 180 180 60 220 132 39 2 0 0 19 99 198 151 107 
224 99 0 0 0 0 0 0 0 0 0 0 0 33 125 215 91 
138 211 145 97 85 92 130 195 173 26 201 156 58 0 0 0 0 
0 0 0 0 0 0 0 0 0 0 0 0 0 0 0 47 141 
212 44 176 194 119 68 47 58 97 164 205 47 175 190 74 0 0 
0 0 0 0 0 0 0 0 0 6 73 176 193 35 145 212 207 
193 200 213 173 21 160 199 103 25 0 0 0 0 0 0 0 0 
0 0 0 0 0 0 0 0 0 0 0 19 95 199 165 32 183 
205 171 142 157 197 207 106 102 213 135 41 0 0 0 0 0 0 
0 0 0 0 0 0 30 106 193 188 73 51 128 152 138 77 35 
163 205 129 44 2 0 0 0 0 0 0 0 0 0 0 0 0 
0 0 0 0 0 0 0 1 42 130 209 151 8 122 198 222 212 
157 47 103 204 166 71 8 0 0 0 0 0 0 0 0 0 71 
93 94 92 73 75 123 150 130 93 75 85 120 146 138 84 68 89 
94 94 94 94 94 94 94 94 94 94 94 94 94 94 94 94 94 
94 94 94 94 89 69 94 146 141 93 36 10 23 71 128 153 114 
71 79 94 94 94 94 94 94 94 94 93 71 146 208 211 211 209 
194 157 105 55 21 10 17 43 88 143 187 208 211 211 211 211 211 
211 211 211 211 211 211 211 211 211 211 211 211 211 211 211 211 211 
211 207 182 135 79 39 34 39 37 32 63 116 168 200 210 211 211 
211 211 211 211 211 211 208 146 90 121 122 122 122 122 121 114 102 
90 85 88 98 111 119 122 122 122 122 122 122 122 122 122 122 122 
122 122 122 122 122 122 122 122 122 122 122 122 122 122 122 121 118 
106 90 76 71 73 84 100 114 121 122 122 122 122 122 122 122 122 
122 122 121 90 97 134 135 135 135 135 135 135 135 135 135 135 135 
135 135 135 135 135 135 135 135 135 135 135 134 128 117 107 104 109 
120 130 134 135 135 135 135 135 135 135 135 135 135 135 135 135 135 
135 135 135 135 135 135 135 135 135 135 135 135 135 135 135 134 97 
141 200 203 203 203 203 203 203 203 203 203 203 203 203 203 203 203 
203 203 203 203 203 200 181 141 91 50 20 2 26 60 106 154 188 
201 203 203 203 203 203 203 203 203 203 203 203 203 203 203 203 203 
203 203 203 203 203 203 203 203 203 203 203 200 141 68 89 90 90 
90 90 90 90 90 90 90 90 90 90 90 90 90 90 90 90 90 
83 62 81 136 157 146 120 111 126 152 156 120 71 67 87 90 90 
90 90 90 90 90 90 90 90 90 90 90 90 90 90 90 90 90 
90 90 90 90 90 90 90 89 68 0 0 0 0 0 0 0 0 
0 0 0 0 0 0 0 0 0 0 0 0 4 51 138 209 172 
60 43 103 118 93 19 93 192 195 114 36 1 0 0 0 0 0 
0 0 0 0 0 0 0 0 0 0 0 0 0 0 0 0 0 
0 0 0 0 0 0 0 0 0 0 0 0 0 0 0 0 0 
0 0 0 0 0 0 0 0 33 118 208 148 25 171 223 222 218 
225 217 141 26 180 187 90 18 0 0 0 0 0 0 0 0 0 
0 0 0 0 0 0 0 0 0 0 0 0 0 0 0 0 0 
0 0 0 0 0 0 0 0 0 0 0 0 0 0 0 0 0 
0 0 0 0 69 181 187 12 183 197 138 103 97 109 153 209 153 
54 206 146 50 0 0 0 0 0 0 0 0 0 0 0 0 0 
0 0 0 0 0 0 0 0 0 0 0 0 0 0 0 0 0 
0 0 0 0 0 0 0 0 0 0 0 0 0 0 0 0 2 
99 223 109 145 201 115 41 6 0 12 55 136 208 75 161 194 80 
0 0 0 0 0 0 0 0 0 0 0 0 0 0 0 0 0 
0 0 0 0 0 0 0 0 0 0 0 0 0 0 0 0 0 
0 0 0 0 0 0 0 0 0 0 0 0 17 120 240 36 216 
157 56 2 0 0 0 6 90 194 151 106 222 99 0 0 0 0 
0 0 0 0 0 0 0 0 0 0 0 0 0 0 0 0 0 
0 0 0 0 0 0 0 0 0 0 0 0 0 0 0 0 0 
0 0 0 0 0 0 0 0 18 123 242 11 233 131 34 0 0 
0 0 0 79 181 170 88 230 103 0 0 0 0 0 0 0 0 
0 0 0 0 0 0 0 0 0 0 0 0 0 0 0 0 0 
0 0 0 0 0 0 0 0 0 0 0 0 0 0 0 0 0 
0 0 0 0 16 119 239 42 212 162 61 3 0 0 0 7 92 
197 147 110 220 98 0 0 0 0 0 0 0 0 0 0 0 0 
0 0 0 0 0 0 0 0 0 0 0 0 0 0 0 0 0 
0 0 0 0 0 0 0 0 0 0 0 0 0 0 0 0 0 
2 97 220 117 134 203 121 47 8 0 19 64 142 208 64 168 190 
76 0 0 0 0 0 0 0 0 0 0 0 0 0 0 0 0 
0 0 0 0 0 0 0 0 0 0 0 0 0 0 0 0 0 
0 0 0 0 0 0 0 0 0 0 0 0 0 0 66 175 192 
7 176 204 147 109 103 117 164 212 143 68 209 141 46 0 0 0 
0 0 0 0 0 0 0 0 0 0 0 0 0 0 0 0 0 
0 0 0 0 0 0 0 0 0 0 0 0 0 0 0 0 0 
0 0 0 0 0 0 0 0 0 0 31 113 204 159 5 158 223 
231 228 231 213 124 45 188 181 83 13 0 0 0 0 0 0 0 
0 0 0 0 0 0 0 0 0 0 0 0 0 0 0 0 0 
0 0 0 69 91 92 92 92 92 92 92 92 92 92 92 92 92 
92 92 92 92 92 92 90 71 92 152 138 57 35 94 108 82 13 
82 150 139 79 75 92 92 92 92 92 92 92 92 92 92 92 92 
92 92 92 92 92 92 92 92 92 92 92 92 92 92 91 69 143 
204 207 207 207 207 207 207 207 207 207 207 207 207 207 207 207 207 
207 207 207 204 179 130 78 54 40 22 14 27 44 59 91 145 188 
205 207 207 207 207 207 207 207 207 207 207 207 207 207 207 207 207 
207 207 207 207 207 207 207 207 207 207 204 143 93 127 128 128 128 
128 128 128 128 128 128 128 128 128 128 128 128 128 129 129 129 128 
128 122 105 77 46 19 6 25 54 86 111 125 128 128 128 128 128 
129 129 131 134 137 138 137 135 132 129 129 128 128 128 128 128 129 
130 132 132 131 129 128 127 93 93 127 123 112 105 111 122 128 128 
128 128 128 128 128 128 123 111 94 81 76 78 87 103 119 127 130 
132 135 135 129 114 99 96 109 122 128 128 128 122 107 82 52 24 
10 9 10 22 50 79 105 121 128 128 128 127 113 85 50 36 65 
99 120 127 93 141 180 134 74 23 68 130 179 204 207 207 207 207 
203 177 128 72 38 38 44 42 34 54 102 156 193 206 205 186 139 
80 27 17 71 131 181 201 179 129 73 49 38 18 7 11 7 16 
37 48 70 126 176 203 202 169 118 73 41 32 54 87 137 183 142 
70 90 148 144 133 142 151 94 74 92 92 92 87 67 100 151 141 
89 32 4 15 61 121 155 127 74 76 76 83 146 143 111 107 138 
152 88 37 94 153 136 62 27 92 128 139 129 97 34 54 131 154 
99 68 69 113 165 88 14 37 29 132 154 85 67 78 193 174 26 
40 15 163 200 88 9 0 0 41 132 211 143 12 131 204 229 221 
172 72 76 197 177 76 63 172 191 40 80 90 9 174 183 97 204 
157 8 152 216 224 211 205 210 224 219 161 21 146 207 121 93 209 
138 82 199 206 161 23 194 166 63 115 226 72 153 166 160 51 221 
132 36 0 0 77 196 169 38 187 202 166 135 148 190 212 132 87 
213 127 76 217 121 116 186 180 155 81 195 105 193 14 174 202 148 
109 95 92 94 106 143 198 180 12 184 161 116 212 17 199 172 132 
205 122 125 213 93 121 212 23 218 92 214 46 195 168 64 0 1 
104 233 89 167 191 112 63 38 48 85 151 213 31 194 156 90 230 
37 202 156 124 221 11 169 81 145 86 207 125 49 12 0 0 0 
9 44 119 201 109 136 155 115 171 78 220 116 62 165 206 46 235 
113 124 169 88 226 26 216 110 148 198 86 0 2 111 244 55 200 
157 63 2 0 0 13 111 223 74 172 142 102 210 34 233 123 92 
230 79 137 23 127 91 206 121 41 6 0 0 0 5 37 114 199 
113 134 131 130 126 131 206 92 25 126 239 13 229 115 124 135 124 
211 13 199 144 115 216 97 0 1 104 233 89 167 191 112 63 38 
48 85 151 213 31 194 119 123 190 65 237 110 96 223 103 136 61 
149 9 182 196 138 102 89 85 88 100 134 191 188 24 180 107 165 
108 148 194 86 2 112 245 39 215 104 124 131 127 209 11 197 147 
111 218 97 0 0 77 196 169 38 187 202 166 135 148 190 212 132 
87 213 103 143 210 34 233 123 92 230 79 173 127 177 146 28 169 
219 217 199 192 198 216 221 177 43 133 209 80 195 116 142 199 89 
10 116 244 28 222 110 125 161 97 223 22 212 119 140 202 89 0 
0 41 132 211 143 12 131 204 229 221 172 72 76 197 177 73 124 
230 37 202 156 124 221 11 217 132 135 210 173 70 33 103 138 149 
140 107 40 60 167 211 147 63 195 149 107 218 103 42 146 226 20 
236 115 122 206 36 221 75 215 61 187 174 69 0 0 8 58 143 
209 191 123 58 27 39 90 165 213 180 101 30 97 217 121 116 186 
180 155 81 226 110 59 128 193 220 197 151 118 106 116 148 194 220 
197 133 60 59 168 198 30 216 143 105 193 168 91 228 103 116 227 
53 170 158 175 30 219 138 42 0 0 0 11 52 116 175 217 241 
250 247 231 197 142 82 30 2 66 172 191 40 80 90 9 174 190 
76 7 39 79 126 164 193 211 218 212 195 167 129 82 41 8 32 
126 219 85 143 201 186 192 45 174 193 76 85 203 157 15 84 27 
143 208 97 15 0 0 0 0 4 31 66 95 109 114 112 102 79 
45 13 0 0 32 110 194 192 147 141 185 202 123 38 0 0 4 
31 61 85 95 98 95 86 63 33 5 0 0 4 74 182 187 31 
101 129 55 114 211 133 41 73 102 157 131 109 127 157 108 75 92 
92 92 92 92 92 92 92 92 91 90 91 92 92 92 92 92 92 
90 70 72 105 129 131 112 76 67 88 92 92 92 92 92 92 92 
92 92 92 92 92 92 92 92 92 76 84 146 142 102 89 121 158 
118 73 66 140 174 124 62 3 56 118 172 202 207 207 207 207 207 
207 207 207 207 207 207 207 207 207 207 207 207 207 207 205 191 162 
133 129 157 187 204 207 207 207 207 207 207 207 207 207 207 207 207 
207 207 207 207 207 205 185 139 80 32 17 53 111 165 196 143 93 
126 120 105 96 104 119 128 129 129 128 128 128 128 128 128 128 128 
128 128 128 128 128 128 128 128 128 128 128 128 128 128 128 128 128 
128 128 128 128 128 128 128 128 128 129 129 129 128 128 128 128 128 
129 129 128 123 111 95 90 102 117 127 127 93 93 127 128 128 128 
125 104 77 63 72 81 87 94 101 110 119 125 128 128 128 128 128 
128 128 128 128 128 128 128 128 128 127 127 127 128 128 128 128 128 
128 128 128 124 112 101 105 119 127 128 128 128 126 111 100 107 123 
128 128 128 128 128 128 127 93 143 204 207 207 203 173 130 65 44 
45 36 24 15 20 45 100 157 195 207 207 207 207 207 207 207 207 
206 195 171 141 117 111 139 178 202 207 207 207 207 206 200 174 126 
75 20 82 147 191 207 207 207 181 133 41 84 137 184 202 191 167 
162 183 200 143 69 91 92 92 76 106 179 87 38 11 36 64 89 
114 137 149 129 84 92 92 92 92 91 78 53 26 16 49 90 123 
152 141 123 81 41 32 5 6 3 2 31 95 151 169 128 154 132 
90 92 92 92 100 191 131 172 148 71 20 60 91 80 86 75 69 
0 0 0 6 82 196 172 56 187 209 197 166 136 93 35 131 219 
97 2 1 20 54 87 118 149 188 219 230 209 167 148 126 195 105 
92 177 212 220 213 209 216 210 144 85 30 191 172 74 0 0 2 
114 255 106 113 175 213 226 237 210 180 177 73 0 0 0 0 37 
135 218 61 173 183 142 164 185 202 202 182 55 239 124 24 8 63 
137 202 234 220 173 111 41 28 68 81 100 236 90 120 180 143 146 
130 125 102 22 77 117 57 200 166 71 0 0 18 124 254 80 92 
19 73 99 101 49 163 195 85 0 0 0 5 78 191 177 62 218 
130 63 66 80 91 127 225 25 219 150 51 9 85 172 176 115 48 
68 146 204 201 155 107 121 229 71 144 210 95 58 91 117 149 193 
170 163 38 201 157 66 2 29 80 159 223 10 153 157 158 118 109 
73 220 177 65 0 0 0 35 131 217 71 171 195 81 6 0 0 
2 105 233 80 179 180 76 8 81 183 195 71 91 139 158 153 95 
186 93 156 198 71 108 212 173 54 134 148 184 171 100 214 57 199 
160 62 46 111 179 210 132 102 197 145 178 136 121 73 226 131 32 
0 0 0 70 185 187 48 217 140 40 0 0 0 0 94 213 124 
137 206 91 1 44 134 217 157 23 150 155 84 95 228 36 207 161 
57 53 153 213 51 154 156 88 65 87 227 98 163 194 74 120 201 
214 121 34 168 179 84 95 170 158 79 221 120 26 0 0 0 95 
216 142 114 209 109 22 0 0 0 0 82 190 163 97 227 102 1 
9 58 143 212 140 49 193 176 136 201 39 231 126 28 16 94 199 
160 103 227 92 41 84 171 154 66 215 115 107 176 114 14 85 148 
158 96 88 152 159 27 206 173 70 7 0 0 88 207 156 66 201 
166 83 24 0 5 34 94 168 175 78 241 113 8 0 9 58 143 
212 139 50 166 139 128 109 220 99 3 0 58 155 212 49 227 97 
136 146 118 137 41 176 175 38 192 196 126 19 112 193 154 180 179 
138 67 159 223 132 38 0 0 59 160 211 98 98 208 169 89 42 
72 127 184 197 123 101 229 108 9 0 0 9 59 144 212 140 29 
102 50 173 189 79 0 0 51 141 220 27 178 158 216 196 164 128 
84 112 215 99 97 192 219 188 61 123 143 161 104 46 46 64 189 
161 63 0 0 21 83 166 210 105 89 205 176 130 179 215 184 73 
69 186 195 84 8 0 0 0 10 59 144 212 152 67 72 221 151 
52 0 0 60 151 215 53 136 125 50 37 69 83 113 122 183 140 
55 78 118 186 172 36 80 4 128 176 191 176 180 152 63 0 0 
0 22 79 161 212 115 78 194 211 194 96 39 163 216 189 118 39 
1 0 0 0 0 10 59 142 216 196 154 222 114 22 0 0 67 
160 209 47 65 85 185 226 235 241 247 236 197 126 43 1 45 143 
228 88 69 160 200 177 180 180 155 112 37 0 0 0 0 18 73 
157 213 126 22 59 21 145 212 201 141 83 37 6 0 0 0 0 
0 0 9 58 137 200 179 169 70 1 0 0 63 148 188 130 201 
219 189 134 109 108 109 104 81 45 10 0 13 109 226 143 180 217 
138 84 78 79 64 37 7 0 0 0 0 0 14 67 152 214 184 
178 210 208 152 92 43 9 0 0 0 0 0 0 0 0 0 9 
49 102 104 92 31 0 0 0 45 120 175 198 203 141 80 34 4 
0 0 0 0 0 0 0 0 74 178 173 204 153 65 8 0 0 
0 0 0 0 0 0 0 0 0 12 63 127 118 116 133 101 51 
15 0 0 0 0 0 0 0 0 0 0 0 0 3 25 27 25 
3 0 0 0 20 66 72 88 86 44 9 0 0 0 0 0 0 
0 0 0 0 38 99 68 106 67 18 0 0 0 0 0 0 