P2
64 64
254
0 0 0 0 0 0 0 0 0 0 0 0 0 0 0 0 0 
0 0 0 0 0 0 0 0 0 0 0 0 0 0 0 0 0 
0 0 0 0 0 0 0 0 0 0 0 0 0 0 0 0 0 
0 0 0 0 0 0 0 0 0 0 0 0 0 0 0 0 0 
0 0 0 0 4 22 46 27 8 1 0 0 0 0 0 0 0 
0 0 0 0 0 0 0 0 0 0 0 0 0 0 0 0 0 
0 0 0 0 0 0 0 0 1 0 0 0 0 0 0 0 0 
0 0 0 0 0 0 0 0 0 0 0 0 0 0 0 4 55 
126 205 233 216 157 79 7 0 0 0 0 0 0 0 0 0 0 
0 0 0 0 0 0 0 0 0 0 0 0 0 0 0 0 0 
0 1 16 56 90 73 29 2 0 0 0 0 0 0 0 0 0 
0 0 0 0 0 0 0 0 0 0 5 81 226 254 254 254 254 
254 243 117 8 0 0 0 0 0 0 0 0 0 0 0 0 0 
0 0 0 0 0 0 0 0 0 0 0 0 0 7 86 186 236 
247 242 216 112 23 1 0 0 0 0 0 0 0 0 0 0 0 
0 0 0 0 0 0 59 229 254 254 254 254 254 254 254 248 99 
2 0 0 0 0 0 0 0 0 0 0 0 0 0 0 0 0 
0 0 0 0 0 0 0 0 7 115 246 254 254 254 254 254 252 
180 32 0 0 0 0 0 0 0 0 0 0 0 0 0 0 0 
0 4 130 254 254 254 254 254 254 254 254 254 210 27 0 0 0 
0 0 0 0 0 0 0 0 0 0 0 0 0 0 0 0 0 
0 0 0 1 82 244 254 254 254 254 254 254 254 253 134 8 0 
0 0 0 0 0 0 0 0 0 0 0 0 0 0 23 207 254 
254 254 254 254 254 254 254 254 245 78 0 0 0 0 0 0 0 
0 0 0 0 0 0 0 0 0 0 0 0 0 0 0 0 10 
166 254 254 254 254 254 254 254 254 254 240 68 0 0 0 0 0 
0 0 0 0 0 0 0 0 0 0 46 233 254 254 254 254 254 
254 254 254 254 251 99 1 0 0 0 0 0 0 0 0 0 0 
0 0 0 0 0 0 0 0 0 0 0 0 31 222 254 254 254 
254 254 254 254 254 254 251 97 1 0 0 0 0 0 0 0 0 
0 0 0 0 0 0 26 215 254 254 254 254 254 254 254 254 254 
247 86 1 0 0 0 0 0 0 0 0 0 0 0 0 0 0 
0 0 0 0 0 0 0 0 39 228 254 254 254 254 254 254 254 
254 254 252 96 1 0 0 0 0 0 0 0 0 0 0 0 0 
0 0 7 151 254 254 254 254 254 254 254 254 254 224 39 0 0 
0 0 0 0 0 0 0 0 0 0 0 0 0 0 0 0 0 
0 0 0 0 15 185 254 254 254 254 254 254 254 254 254 245 79 
1 0 0 0 0 0 0 0 0 0 0 0 0 0 0 1 74 
240 254 254 254 254 254 254 254 251 109 3 0 0 0 0 0 0 
0 0 0 0 0 0 0 0 0 0 0 0 0 0 0 0 0 
1 93 250 254 254 254 254 254 254 254 254 174 17 0 0 0 0 
0 0 0 0 0 0 0 0 0 0 0 0 6 103 243 254 254 
254 254 254 250 152 13 0 0 0 0 0 0 0 0 0 0 0 
0 0 0 0 0 0 0 0 0 0 0 0 0 0 13 157 252 
254 254 254 254 254 254 223 65 1 0 0 0 0 0 0 0 0 
0 0 0 0 0 0 0 0 0 6 81 183 237 247 242 211 100 
12 0 0 0 0 0 0 0 0 0 0 0 0 0 0 0 0 
0 0 0 0 0 0 0 0 0 0 0 23 122 236 252 254 253 
246 168 63 5 0 0 0 0 0 0 0 0 0 0 0 0 0 
0 0 0 0 0 0 1 16 57 90 70 26 2 0 0 0 0 
0 0 0 0 0 0 0 0 0 0 0 0 0 0 0 0 0 
0 0 0 0 0 0 0 0 6 65 95 88 93 82 16 1 0 
0 0 0 0 0 0 0 0 0 0 0 0 0 0 0 0 0 
0 0 0 0 0 1 0 0 0 0 0 0 0 0 0 0 0 
0 0 0 0 0 0 0 0 0 0 0 0 0 0 0 0 0 
0 0 0 0 0 0 1 0 0 1 0 0 0 0 0 0 0 
0 0 0 0 0 0 0 0 0 0 0 0 0 0 0 0 0 
0 0 0 0 0 0 0 0 0 0 0 0 0 0 0 0 0 
0 0 0 0 0 0 0 0 0 0 0 0 0 0 0 0 0 
0 0 0 0 0 0 0 0 0 0 0 0 0 0 0 0 0 
0 0 0 0 0 0 0 0 0 0 0 0 0 0 0 0 0 
0 0 0 0 0 0 0 0 0 0 0 0 0 0 0 0 0 
0 0 0 0 0 0 0 0 0 0 0 0 0 0 0 0 0 
0 0 0 0 0 0 0 0 0 0 0 0 0 0 0 0 0 
0 0 0 0 0 0 0 0 0 0 0 0 0 0 0 0 0 
0 0 0 0 0 0 0 0 0 0 0 0 0 0 0 0 0 
0 0 0 0 0 0 0 0 0 0 0 0 0 0 0 0 0 
0 0 0 0 0 0 0 0 0 0 0 0 0 0 0 0 0 
0 0 0 0 0 0 0 0 0 0 0 0 0 0 0 0 0 
0 0 0 0 0 9 27 46 22 4 0 0 0 0 0 0 0 
0 0 0 0 0 0 0 0 0 0 0 0 0 0 0 0 0 
0 0 0 0 0 0 0 0 0 0 0 0 0 0 0 0 0 
0 0 0 0 0 0 0 0 0 0 0 0 0 0 0 0 11 
83 161 216 233 205 132 68 6 0 0 0 0 0 0 0 0 0 
0 0 0 0 0 0 0 0 0 0 0 0 0 0 0 0 0 
0 0 0 0 0 0 0 0 0 0 0 0 0 0 0 0 0 
0 0 0 0 0 0 0 0 0 0 0 22 151 248 254 254 254 
254 254 239 107 7 0 0 0 0 0 0 0 0 0 0 0 0 
0 0 0 0 0 0 0 0 0 0 0 0 0 0 0 0 0 
0 0 0 0 0 0 0 0 0 0 0 0 0 0 0 0 0 
0 0 0 0 0 0 8 131 252 254 254 254 254 254 254 254 247 
98 2 0 0 0 0 0 0 0 0 0 0 0 0 0 0 0 
0 0 0 0 0 0 0 0 0 0 0 0 0 0 0 0 0 
0 0 0 0 0 0 0 0 0 0 0 0 0 0 0 0 0 
0 0 76 243 254 254 254 254 254 254 254 254 254 213 30 0 0 
0 0 0 0 0 0 0 0 0 0 0 0 0 0 0 0 0 
0 0 0 0 0 0 0 0 0 0 0 0 0 0 0 0 0 
0 0 0 0 0 0 0 0 0 0 0 0 0 0 0 93 253 
254 254 254 254 254 254 254 254 254 245 83 1 0 0 0 0 0 
0 0 0 0 0 0 0 0 0 0 0 0 0 0 0 0 0 
0 0 0 0 0 0 0 0 0 0 0 0 0 0 0 0 0 
0 0 0 0 0 0 0 0 0 0 0 103 254 254 254 254 254 
254 254 254 254 254 251 98 1 0 0 0 0 0 0 0 0 0 
0 0 0 0 0 0 0 0 0 0 0 0 0 0 0 0 0 
0 0 0 0 0 0 0 0 0 0 0 0 0 0 0 0 0 
0 0 0 0 0 0 0 94 253 254 254 254 254 254 254 254 254 
254 244 78 1 0 0 0 0 0 0 0 0 0 0 0 0 0 
0 0 0 0 0 0 0 0 0 0 0 0 0 0 0 0 0 
0 0 0 0 0 0 0 0 0 0 0 0 0 0 0 0 0 
0 0 0 70 240 254 254 254 254 254 254 254 254 254 204 26 0 
0 0 0 0 0 0 0 0 0 0 0 0 0 0 0 0 0 
0 0 0 0 0 0 0 0 0 0 0 0 0 0 0 0 0 
0 0 0 0 0 0 0 0 0 0 0 0 0 0 0 0 7 
119 251 254 254 254 254 254 254 254 244 92 2 0 0 0 0 0 
0 0 0 0 0 0 0 0 0 0 0 0 0 0 0 0 0 
0 0 0 0 0 0 0 0 0 0 0 0 0 0 0 0 0 
0 0 0 0 0 0 0 0 0 0 0 0 0 13 128 244 254 
254 254 254 254 230 95 7 0 0 0 0 0 0 0 0 0 0 
0 0 0 0 0 0 0 0 0 0 0 0 0 0 0 0 0 
0 0 0 0 0 0 0 0 0 0 0 0 0 0 0 0 0 
0 0 0 0 0 0 0 0 0 0 8 73 129 191 217 177 104 
55 5 0 0 0 0 0 0 0 0 0 0 0 0 0 0 0 
0 0 0 0 0 0 0 0 0 0 0 0 0 0 0 0 0 
0 0 0 0 0 0 0 0 0 0 0 0 0 0 0 0 0 
0 0 0 0 0 0 0 0 4 16 26 12 1 0 0 0 0 
0 0 0 0 0 0 0 0 0 0 0 0 0 0 0 0 0 
0 0 0 0 0 0 0 0 0 0 0 0 0 0 0 0 0 
0 0 0 0 0 0 0 0 0 0 0 0 0 0 0 0 0 
0 0 0 0 0 0 0 0 0 0 0 0 0 0 0 0 0 
0 0 0 0 0 0 0 0 0 0 0 0 0 0 0 0 0 
0 0 0 0 0 0 0 0 0 0 0 0 0 0 0 0 0 
0 0 0 0 0 0 0 0 0 0 0 0 0 0 0 0 0 
0 0 0 0 0 0 0 0 0 0 0 0 0 0 0 0 0 
0 0 0 0 0 0 0 0 0 0 0 0 0 0 0 0 0 
0 0 0 0 0 0 0 0 0 0 0 0 0 0 0 0 0 
0 0 0 0 0 0 0 0 1 0 0 0 0 0 0 0 0 
0 0 0 0 0 0 0 0 0 0 1 3 20 37 58 39 21 
4 1 0 0 0 0 0 0 0 0 4 12 1 0 0 0 0 
0 0 0 5 32 6 0 0 0 0 0 0 0 0 0 0 7 
65 95 93 96 87 26 2 0 0 0 0 0 0 0 0 0 0 
0 0 0 0 0 8 79 126 203 231 240 232 206 134 85 11 0 
0 0 0 0 3 49 131 173 88 7 0 0 0 0 0 9 118 
219 132 12 0 0 0 0 0 0 0 0 29 133 239 252 254 254 
249 196 81 6 0 0 0 0 0 0 0 0 0 0 0 0 0 
15 129 244 254 254 254 254 254 254 254 246 145 24 0 0 0 0 
39 205 254 254 250 112 5 0 0 0 0 79 249 254 251 86 0 
0 0 0 0 0 0 17 159 253 254 254 254 254 254 254 239 77 
1 0 0 6 59 69 8 0 0 0 0 0 6 121 251 254 254 
254 254 254 254 254 254 254 252 147 10 0 0 2 109 253 254 254 
254 234 57 0 0 0 3 128 254 254 254 162 9 0 0 0 0 
0 0 85 249 254 254 254 254 254 254 254 254 167 10 0 6 99 
233 238 125 11 0 0 0 0 47 227 254 254 254 254 254 254 254 
254 254 254 254 239 65 0 0 21 203 254 254 254 254 253 94 0 
0 0 20 198 254 254 254 221 32 0 0 0 0 0 0 87 254 
254 254 254 254 254 254 254 254 215 25 0 66 238 254 254 248 87 
1 0 0 0 50 230 254 254 254 254 254 254 254 254 254 254 254 
240 69 0 0 53 238 254 254 254 254 254 116 1 0 0 57 236 
254 254 254 244 79 1 0 0 0 0 0 85 249 254 254 254 254 
254 254 254 254 167 10 1 98 253 254 254 254 115 1 0 0 0 
8 136 252 254 254 254 254 254 254 254 254 254 253 164 13 0 1 
81 246 254 254 254 254 254 146 6 0 0 65 239 254 254 254 246 
85 1 0 0 0 0 0 17 159 253 254 254 254 254 254 254 239 
77 1 5 139 254 254 254 254 193 18 0 0 0 0 24 149 248 
254 254 254 254 254 254 254 249 167 37 0 0 0 69 243 254 254 
254 254 254 131 4 0 0 25 209 254 254 254 228 41 0 0 0 
0 0 0 0 29 133 239 252 254 254 249 196 81 6 0 16 190 
254 254 254 254 229 42 0 0 0 0 0 12 86 151 223 241 246 
242 225 161 91 16 0 0 0 0 33 225 254 254 254 254 254 99 
0 0 0 6 143 254 254 254 175 12 0 0 0 0 0 0 0 
0 7 65 95 93 96 87 26 2 0 0 5 139 254 254 254 254 
193 18 0 0 0 0 0 0 1 7 31 61 82 62 33 9 1 
0 0 0 0 0 5 141 254 254 254 254 246 82 1 0 0 0 
86 252 254 253 98 0 0 0 0 0 0 0 0 0 0 0 0 
0 0 1 0 0 0 0 1 98 253 254 254 254 115 1 0 0 
0 0 0 0 0 0 0 0 1 0 0 0 0 0 0 0 0 
0 1 79 244 254 254 254 173 16 0 0 0 0 20 165 240 181 
32 0 0 0 0 0 0 0 0 0 0 0 0 0 0 0 0 
0 0 0 0 66 238 254 254 248 87 1 0 0 0 0 0 0 
0 0 0 0 0 0 0 0 0 0 0 0 0 0 0 7 105 
237 246 194 50 1 0 0 0 0 0 16 72 23 1 0 0 0 
0 0 0 0 0 0 0 0 0 0 0 0 0 0 0 0 0 
6 99 233 238 125 11 0 0 0 0 0 0 0 0 0 0 0 
0 0 0 0 0 0 0 0 0 0 0 0 6 65 84 28 2 
0 0 0 0 0 0 0 0 0 0 0 0 0 0 0 0 0 
0 0 0 0 0 0 0 0 0 0 0 0 0 0 6 59 69 
8 0 0 0 0 0 0 0 0 0 0 0 0 0 0 0 0 
0 0 0 0 0 0 0 0 0 0 1 0 0 0 0 0 0 
0 0 0 0 0 0 0 0 0 0 0 0 0 0 0 0 0 
0 0 0 0 0 0 0 0 0 0 0 0 0 0 0 0 0 
0 0 0 0 0 0 0 0 0 0 0 0 0 0 0 0 0 
0 0 0 0 0 0 0 0 0 0 0 0 0 0 0 0 0 
0 0 0 0 0 0 0 0 0 0 0 0 0 0 0 0 0 
0 0 0 0 0 0 0 0 0 0 0 0 0 0 0 0 0 
0 0 0 0 0 0 0 0 0 0 0 0 0 0 0 0 0 
0 0 0 0 0 0 0 0 0 0 0 0 0 0 0 0 0 
0 1 1 0 0 0 0 0 0 0 0 0 0 0 0 0 0 
0 0 0 0 0 0 0 0 0 0 0 0 0 0 0 0 0 
0 0 0 0 0 0 0 0 0 0 0 0 0 0 0 0 0 
0 0 0 0 0 0 0 0 0 0 1 39 88 93 97 85 55 
28 11 1 0 0 0 0 0 0 0 0 0 0 0 0 0 0 
0 0 0 0 0 0 0 0 0 0 0 0 0 1 9 0 0 
0 0 0 0 0 0 0 0 0 0 0 0 0 0 0 0 0 
0 0 0 0 0 0 18 180 253 254 251 247 238 218 162 40 0 
0 0 0 0 0 0 0 0 0 0 1 4 26 62 10 0 0 
0 0 0 0 0 0 0 3 37 85 50 2 0 0 0 0 0 
0 0 7 70 10 0 0 0 0 0 0 0 0 0 0 0 0 
0 1 91 248 254 254 254 254 254 254 252 90 0 0 0 0 0 
0 0 0 1 20 67 97 132 209 228 58 0 0 0 0 24 56 
55 41 40 101 213 250 151 9 0 0 0 0 0 0 0 64 244 
147 48 71 85 19 9 0 0 0 0 0 0 0 0 15 173 254 
254 254 254 254 254 254 254 118 2 0 0 0 0 0 6 35 100 
195 241 252 254 254 244 77 0 0 0 0 44 214 238 235 233 251 
254 254 149 7 0 0 0 0 0 0 0 93 254 253 226 241 249 
112 4 0 0 0 0 0 0 0 1 86 246 254 254 254 254 254 
254 254 254 182 13 0 0 0 0 0 8 88 248 254 254 254 254 
254 215 29 0 0 0 0 30 198 254 254 254 254 254 254 133 4 
0 0 0 0 0 1 17 147 254 254 254 254 249 93 1 0 0 
0 0 0 0 0 12 161 254 254 254 254 254 254 254 254 254 228 
37 0 0 0 0 0 0 22 159 252 254 254 254 254 135 4 0 
0 0 0 3 97 250 254 254 254 254 254 167 13 0 0 0 0 
2 51 174 251 254 254 254 254 232 47 0 0 0 0 0 0 0 
1 73 240 254 254 254 254 254 254 254 254 254 246 79 0 0 0 
0 0 0 0 22 160 252 254 254 252 97 1 0 0 0 0 0 
15 178 254 254 254 254 254 246 89 2 0 0 0 16 162 251 254 
254 254 254 254 250 110 5 0 0 0 0 0 0 0 48 209 254 
254 254 254 254 254 254 254 254 252 91 0 0 0 0 0 0 0 
0 22 160 252 254 241 69 0 0 0 0 0 0 1 110 254 254 
254 254 254 254 184 21 0 0 0 2 46 112 215 253 254 254 254 
254 217 48 0 0 0 0 0 0 0 4 65 209 254 254 254 254 
254 254 254 254 244 52 0 0 0 0 0 0 0 0 0 22 160 
250 191 21 0 0 0 0 0 0 2 122 254 254 254 250 250 251 
236 64 0 0 0 0 0 3 70 237 254 247 171 163 139 15 0 
0 0 0 0 0 0 0 3 58 200 254 254 254 254 254 250 185 
88 5 0 0 0 0 0 0 0 0 0 0 25 112 48 1 0 
0 0 0 0 0 4 130 253 244 145 96 100 100 83 25 0 0 
0 0 0 0 13 167 248 125 13 10 10 0 0 0 0 0 0 
0 0 0 0 2 48 191 253 254 252 205 98 19 1 0 0 0 
0 0 0 0 0 0 0 0 0 12 11 0 0 0 0 0 0 
0 2 63 151 84 9 1 2 1 1 0 0 0 0 0 0 0 
0 37 116 15 0 0 0 0 0 0 0 0 0 0 0 0 0 
0 1 39 158 205 106 29 2 0 0 0 0 0 0 0 0 0 
0 0 0 0 0 0 0 0 0 0 0 0 0 0 0 11 10 
1 0 0 0 0 0 0 0 0 0 0 0 0 0 21 22 0 
0 0 0 0 0 0 0 0 0 0 0 0 0 0 0 1 20 
32 3 0 0 0 0 0 0 0 0 0 0 0 0 0 0 0 
0 0 0 0 0 0 0 0 0 0 0 0 0 0 0 0 0 
0 0 0 0 0 0 0 0 0 0 0 0 0 0 0 0 0 
0 0 0 0 0 0 0 0 0 0 0 0 0 0 0 0 0 
0 0 0 0 0 0 0 0 0 0 0 0 0 0 0 0 0 
0 0 0 0 0 0 0 0 0 0 0 0 0 0 0 0 0 
0 0 0 0 0 0 0 0 0 0 0 0 0 0 0 0 