P2
64 64
254
0 0 0 0 0 0 2 7 22 44 51 47 28 12 3 0 0 
0 0 0 0 0 0 0 0 0 0 0 0 0 0 0 0 0 
0 0 0 0 0 0 0 0 0 0 1 4 6 5 2 0 0 
0 0 0 0 0 0 0 0 0 0 0 0 0 0 0 0 0 
0 7 37 84 143 190 209 199 160 103 47 9 0 0 0 0 0 
0 0 0 0 0 0 0 0 0 0 0 0 0 0 0 0 0 
0 0 0 0 3 17 44 75 91 84 56 24 5 0 0 0 0 
0 0 0 0 0 0 0 0 0 0 0 0 0 7 49 139 212 
240 229 212 223 239 226 162 64 9 0 0 0 0 0 0 0 0 
0 0 0 0 0 0 0 0 0 0 0 0 0 0 0 0 9 
50 117 181 219 230 226 199 140 67 20 3 0 0 0 0 0 0 
0 0 0 0 0 0 0 0 2 39 141 226 212 145 89 59 76 
124 198 238 170 55 4 0 0 0 0 0 0 0 0 0 0 0 
0 0 0 0 0 0 0 0 0 0 0 9 63 165 230 233 200 
176 187 224 239 191 100 24 1 0 0 0 0 0 0 0 0 0 
0 0 0 0 8 87 213 210 102 27 6 3 4 16 76 189 234 
132 23 0 0 0 0 0 0 0 0 0 0 0 0 0 0 0 
0 0 0 0 0 0 3 49 163 237 194 109 55 33 42 89 167 
229 195 80 10 0 0 0 0 0 0 0 0 0 0 0 0 0 
23 145 240 142 25 2 0 0 0 1 12 96 225 197 57 2 0 
0 0 0 0 0 0 0 0 0 0 0 0 0 0 0 0 0 
0 0 13 107 227 197 78 14 3 2 2 8 47 156 235 164 44 
2 0 0 0 0 0 0 0 0 0 0 0 1 44 192 228 87 
5 0 0 0 0 0 3 41 186 230 87 5 0 0 0 0 0 
0 0 0 0 0 0 0 0 0 0 0 0 0 0 0 31 166 
238 119 16 1 0 0 0 0 7 70 204 217 79 5 0 0 0 
0 0 0 0 0 0 0 0 1 53 209 212 59 3 0 0 0 
0 0 1 24 165 237 102 7 0 0 0 0 0 0 0 0 0 
0 0 0 0 0 0 0 0 0 0 0 48 201 220 72 4 0 
0 0 0 0 1 23 167 240 101 7 0 0 0 0 0 0 0 
0 0 0 0 1 47 198 224 78 4 0 0 0 0 0 2 35 
178 232 92 6 0 0 0 0 0 0 0 0 0 0 0 0 0 
0 0 0 0 0 0 0 50 204 216 65 4 0 0 0 0 0 
1 20 164 242 104 7 0 0 0 0 0 0 0 0 0 0 0 
0 27 157 239 128 19 2 0 0 0 1 9 86 219 205 64 3 
0 0 0 0 0 0 0 0 0 0 0 0 0 0 0 0 0 
0 0 0 37 177 236 108 11 0 0 0 0 0 4 54 193 225 
84 5 0 0 0 0 0 0 0 0 0 0 0 0 11 99 222 
202 85 17 3 2 3 10 60 177 238 143 29 0 0 0 0 0 
0 0 0 0 0 0 0 0 0 0 0 0 0 0 0 0 16 
119 235 183 57 8 1 0 1 4 28 124 229 182 53 3 0 0 
0 0 0 0 0 0 0 0 0 0 3 45 156 235 198 112 56 
33 44 95 181 238 182 62 5 0 0 0 0 0 0 0 0 0 
0 0 0 0 0 0 0 0 0 0 0 0 3 56 180 234 167 
76 24 11 17 55 126 209 214 107 18 0 0 0 0 0 0 0 
0 0 0 0 0 0 0 8 58 159 228 232 200 176 189 227 238 
180 80 14 0 0 0 0 0 0 0 0 0 0 0 0 0 0 
0 0 0 0 0 0 0 0 0 14 86 186 235 208 171 164 167 
194 230 213 135 41 3 0 0 0 0 0 0 0 0 0 0 0 
0 0 0 0 8 48 114 180 219 230 225 195 133 57 12 0 0 
0 0 0 0 0 0 0 0 0 0 0 0 0 0 0 0 0 
0 0 0 0 0 1 20 72 157 215 243 253 248 226 181 104 41 
7 0 0 0 0 0 0 0 0 0 0 0 0 0 0 0 0 
0 3 17 44 75 90 82 53 22 4 0 0 0 0 0 0 0 
0 0 0 0 0 0 0 0 0 0 0 0 0 0 0 0 0 
0 0 1 9 41 76 98 104 102 84 54 17 3 0 0 0 0 
0 0 0 0 0 0 0 0 0 0 0 0 0 0 0 0 1 
4 6 5 2 0 0 0 0 0 0 0 0 0 0 0 0 0 
0 0 0 0 0 0 0 0 0 0 0 0 0 0 0 0 0 
2 4 5 4 5 5 3 0 0 0 0 0 0 0 0 0 0 
0 0 0 0 0 0 0 0 0 0 0 0 0 0 0 0 0 
0 0 0 0 0 0 0 0 0 0 0 0 0 0 1 1 1 
0 0 0 0 0 0 0 0 0 0 0 0 0 0 0 0 0 
0 0 0 0 0 0 0 0 0 0 0 0 0 0 0 0 0 
0 0 0 0 0 0 0 0 0 0 0 0 0 0 0 0 0 
0 0 0 0 0 0 0 2 12 28 48 53 44 23 8 2 0 
0 0 0 0 0 0 0 0 0 0 0 0 0 0 0 0 0 
0 0 0 0 0 0 0 0 0 0 0 0 0 0 0 0 0 
0 0 0 0 0 0 0 0 0 0 0 0 0 0 0 0 0 
0 1 12 51 107 162 200 209 191 146 90 42 8 0 0 0 0 
0 0 0 0 0 0 0 0 0 0 0 0 0 0 0 0 0 
0 0 0 0 0 0 0 0 0 0 0 0 0 0 0 0 0 
0 0 0 0 0 0 0 0 0 0 0 0 0 1 18 82 175 
232 240 222 212 228 242 220 155 60 9 0 0 0 0 0 0 0 
0 0 0 0 0 0 0 0 0 0 0 0 0 0 0 0 0 
0 0 0 0 0 0 0 0 0 0 0 0 0 0 0 0 0 
0 0 0 0 0 0 0 0 0 10 75 187 236 191 121 75 59 
87 137 206 237 166 55 5 0 0 0 0 0 0 0 0 0 0 
0 0 0 0 0 0 0 0 0 0 0 0 0 0 0 0 0 
0 0 0 0 0 0 0 0 0 0 0 0 0 0 0 0 0 
0 0 0 0 2 47 166 236 167 61 13 4 3 5 19 82 191 
233 133 25 0 0 0 0 0 0 0 0 0 0 0 0 0 0 
0 0 0 0 0 0 0 0 0 0 0 0 0 0 0 0 0 
0 0 0 0 0 0 0 0 0 0 0 0 0 0 0 0 0 
4 80 221 204 70 7 1 0 0 0 1 13 95 223 198 60 3 
0 0 0 0 0 0 0 0 0 0 0 0 0 0 0 0 0 
0 0 0 0 0 0 0 0 0 0 0 0 0 0 0 0 0 
0 0 0 0 0 0 0 0 0 0 0 0 0 5 104 248 165 
18 1 0 0 0 0 0 3 40 183 229 89 6 0 0 0 0 
0 0 0 0 0 0 0 0 0 0 0 0 0 0 0 0 0 
0 0 0 0 0 0 0 0 0 0 0 0 0 0 0 0 0 
0 0 0 0 0 0 0 0 0 5 109 254 160 9 0 0 0 
0 0 0 1 25 166 235 101 8 0 0 0 0 0 0 0 0 
0 0 0 0 0 0 0 0 0 0 0 0 0 0 0 0 0 
0 0 0 0 0 0 0 0 0 0 0 0 0 0 0 0 0 
0 0 0 0 0 5 103 247 167 20 1 0 0 0 0 0 3 
44 186 227 87 6 0 0 0 0 0 0 0 0 0 0 0 0 
0 0 0 0 0 0 0 0 0 0 0 0 0 0 0 0 0 
0 0 0 0 0 0 0 0 0 0 0 0 0 0 0 0 0 
0 4 78 217 207 76 9 1 0 0 0 2 16 101 224 193 57 
3 0 0 0 0 0 0 0 0 0 0 0 0 0 0 0 0 
0 0 0 0 0 0 0 0 0 0 0 0 0 0 0 0 0 
0 0 0 0 0 0 0 0 0 0 0 0 0 0 2 44 159 
237 178 71 16 5 4 6 25 90 195 229 127 23 0 0 0 0 
0 0 0 0 0 0 0 0 0 0 0 0 0 0 0 0 0 
0 0 0 0 0 0 0 0 0 0 0 0 0 0 0 0 0 
0 0 0 0 0 0 0 0 0 0 0 9 67 179 238 201 138 
96 79 108 155 214 233 160 53 4 0 0 0 0 0 0 0 0 
0 0 0 0 0 0 0 0 0 0 0 0 0 0 0 0 0 
0 0 0 0 0 0 0 0 0 0 0 0 0 0 0 0 0 
0 0 0 0 0 0 0 0 13 70 164 225 244 235 227 240 244 
213 145 55 9 0 0 0 0 0 0 0 0 0 0 0 0 0 
0 0 0 0 0 0 0 0 0 0 0 0 0 0 0 0 0 
0 0 0 0 0 0 0 0 0 0 0 0 0 0 0 0 0 
0 0 0 0 0 10 45 91 141 179 190 171 125 76 37 7 0 
0 0 0 0 0 0 0 0 0 0 0 0 0 0 0 0 0 
0 0 0 0 0 0 0 0 0 0 0 0 0 0 0 0 0 
0 0 0 0 0 0 0 0 0 0 0 0 0 0 0 0 0 
0 0 2 7 19 33 38 30 15 4 2 0 0 0 0 0 0 
0 0 0 0 1 1 1 0 0 0 0 0 0 0 0 0 0 
0 0 0 0 0 0 0 0 0 0 0 0 0 0 0 0 0 
0 0 0 0 0 0 0 2 4 5 4 5 5 3 0 0 0 
0 0 0 0 0 0 0 0 0 0 0 0 0 3 8 21 39 
59 66 60 41 23 9 3 0 0 0 0 0 2 8 18 18 14 
3 0 0 0 0 0 7 27 32 28 8 0 0 0 0 0 0 
0 1 10 43 77 99 106 105 89 59 22 4 0 0 0 0 0 
0 0 0 0 0 0 0 0 10 48 92 145 189 217 224 218 191 
150 97 52 12 1 0 0 5 34 83 131 140 112 51 9 0 0 
0 10 64 141 162 146 71 13 0 0 0 0 0 2 23 78 162 
218 245 254 251 232 194 121 48 8 0 0 2 4 4 2 0 0 
0 0 0 14 72 166 224 243 232 210 200 208 230 242 227 173 81 
20 1 1 29 118 202 235 240 232 167 61 7 0 2 48 167 232 
223 231 173 52 2 0 0 0 0 17 90 189 234 206 169 162 164 
186 226 225 150 46 3 8 39 66 67 44 10 0 0 0 8 68 
179 237 199 136 90 54 43 53 87 130 193 235 189 82 12 5 72 
199 219 152 129 194 237 151 38 1 7 93 228 195 102 187 233 108 
11 0 0 0 3 54 179 231 161 71 22 10 14 43 108 202 222 
106 14 57 148 199 201 159 69 12 0 1 34 149 235 177 70 16 
5 3 2 3 5 15 63 163 233 165 44 20 135 240 159 36 12 
81 212 215 73 3 21 145 246 134 11 117 242 165 30 0 0 0 
3 83 228 194 57 7 1 0 0 3 19 122 237 161 38 152 230 
207 202 233 169 53 3 2 56 195 215 84 9 1 0 0 0 0 
0 1 8 69 203 209 69 42 190 232 94 7 1 24 168 245 103 
6 46 191 229 90 2 70 215 208 61 3 0 0 4 99 247 168 
17 1 0 0 0 0 5 88 229 176 47 214 206 90 77 194 225 
91 6 2 56 197 212 78 8 1 0 0 0 0 0 0 6 63 
200 211 67 68 222 199 49 3 0 8 144 252 126 11 65 216 201 
53 1 40 185 227 85 6 0 0 3 83 228 194 57 7 1 0 
0 3 19 122 237 152 85 243 159 22 13 137 246 139 19 1 37 
156 233 165 61 13 4 2 2 2 4 11 54 149 230 173 42 84 
231 181 33 2 0 5 132 249 137 14 65 218 197 49 0 36 181 
228 87 6 0 0 3 54 179 231 161 71 22 10 14 43 108 202 
222 85 135 246 127 8 4 97 235 183 39 0 10 77 187 234 190 
122 73 40 32 39 69 117 183 231 198 93 13 80 228 189 39 2 
0 6 138 251 132 13 52 198 223 81 1 63 209 214 67 4 0 
0 0 17 90 189 234 206 169 162 164 186 226 225 150 33 156 239 
110 5 3 69 218 198 47 0 1 20 84 175 230 241 220 192 180 
191 218 240 233 183 95 27 3 57 206 220 75 4 1 15 156 249 
114 8 25 154 245 125 7 108 239 174 36 0 0 0 0 2 23 
78 162 218 245 254 251 232 194 121 48 19 147 246 127 8 4 97 
235 183 39 0 0 1 14 53 104 162 205 228 232 229 208 167 110 
56 16 2 0 29 159 241 127 16 5 53 193 229 86 4 9 103 
235 182 71 168 237 119 14 0 0 0 0 0 1 10 43 77 99 
106 105 89 59 22 4 10 113 243 159 22 13 137 246 139 19 0 
0 0 0 3 11 29 54 77 86 78 55 31 12 3 0 0 0 
9 97 223 200 85 49 135 230 182 53 3 2 56 182 228 200 223 
189 64 3 0 0 0 0 0 0 0 2 4 5 4 5 5 3 
0 0 4 78 214 206 90 77 194 225 91 6 0 0 0 0 0 
0 0 1 4 5 4 1 0 0 0 0 0 0 3 47 160 234 
207 187 222 206 101 16 0 0 18 89 172 192 177 100 24 1 0 
0 0 0 0 0 0 0 0 0 0 0 0 0 0 0 2 42 
152 230 207 202 233 169 53 3 0 0 0 0 0 0 0 0 0 
0 0 0 0 0 0 0 0 0 0 9 59 153 207 217 187 112 
34 3 0 0 1 16 50 59 52 20 3 0 0 0 0 0 0 
0 0 0 0 0 0 0 0 0 0 0 0 8 57 148 199 201 
159 69 12 0 0 0 0 0 0 0 0 0 0 0 0 0 0 
0 0 0 0 0 0 0 8 41 73 80 59 24 4 0 0 0 
0 0 2 3 3 0 0 0 0 0 0 0 0 0 0 0 0 
0 0 0 0 0 0 0 0 0 8 39 66 67 44 10 0 0 
0 0 0 0 0 0 0 0 0 0 0 0 0 0 0 0 0 
0 0 0 0 2 5 5 3 1 0 0 0 0 0 0 0 0 
0 2 3 4 5 6 6 4 1 0 0 0 0 0 0 0 0 
0 0 0 0 0 0 2 4 4 2 0 0 0 0 0 0 0 
0 0 0 0 1 1 1 0 0 0 0 0 0 0 0 0 0 
0 0 0 0 0 0 0 0 0 0 0 0 0 3 28 63 91 
105 105 95 76 52 30 14 3 0 0 0 0 0 0 0 0 0 
0 0 0 2 3 3 0 0 0 0 0 0 0 0 0 1 4 
14 14 12 1 0 0 0 0 0 2 3 4 2 0 0 0 0 
0 0 0 0 0 0 0 0 0 17 100 187 234 251 244 236 226 
203 156 92 29 2 0 0 0 0 0 0 0 2 5 9 25 52 
55 43 12 0 0 2 3 4 3 1 5 28 63 78 66 39 5 
0 0 0 0 0 11 44 50 45 12 4 4 3 2 1 0 0 
0 0 0 0 3 57 185 227 180 162 163 174 195 217 220 180 64 
4 0 0 0 0 3 6 20 50 82 111 152 192 173 135 41 2 
2 20 47 66 71 65 78 139 201 195 165 92 14 0 0 0 0 
0 42 146 163 172 100 85 79 57 25 11 1 0 0 0 0 0 
16 115 234 180 49 12 19 28 43 72 172 230 99 6 0 0 0 
9 31 68 128 189 227 244 244 213 182 194 70 4 3 42 122 177 
218 225 230 240 220 160 207 129 19 0 0 0 0 1 76 216 179 
235 225 228 208 158 65 16 1 0 0 0 0 3 54 186 232 110 
12 1 1 2 3 9 137 249 137 16 0 0 1 17 65 155 221 
229 194 161 124 64 170 219 75 4 3 54 162 174 173 200 192 156 
89 104 239 146 20 0 0 0 3 18 114 247 134 134 172 176 171 
198 92 17 1 0 0 0 0 15 109 231 185 52 3 0 0 0 
0 4 100 237 179 36 0 0 1 17 70 163 171 92 46 20 7 
78 221 203 58 2 2 46 175 210 86 36 37 26 8 119 242 148 
21 0 0 4 34 102 193 227 111 26 36 25 158 233 101 9 0 
0 0 0 3 48 177 233 116 14 0 0 0 0 0 3 60 210 
215 64 3 0 0 11 61 176 230 156 53 6 8 124 244 156 26 
0 1 25 128 234 176 46 2 1 4 96 229 188 55 4 0 18 
97 194 222 158 57 2 3 31 173 229 93 9 0 0 0 0 4 
66 198 200 69 5 0 0 0 0 0 2 33 182 235 88 5 0 
0 1 19 89 195 233 158 54 19 159 244 112 9 0 0 5 59 
194 233 98 4 0 2 53 184 231 119 20 0 21 105 168 141 84 
31 5 3 26 148 234 145 35 2 0 0 0 4 63 186 213 118 
33 4 0 0 0 0 3 24 175 240 92 4 0 0 0 2 20 
90 195 233 157 61 190 226 82 4 0 0 0 17 139 249 131 4 
11 17 14 99 222 181 49 1 18 96 182 225 199 106 23 52 82 
95 184 160 43 2 0 0 0 2 34 126 216 212 122 37 4 0 
2 10 46 106 208 216 71 2 0 0 0 0 1 20 90 195 230 
170 217 182 51 2 0 0 0 11 127 250 132 60 116 148 156 138 
171 172 59 3 4 32 75 146 223 182 77 167 215 220 199 149 40 
2 0 0 0 0 6 42 129 215 216 131 41 10 37 96 174 229 
225 149 35 0 0 0 0 0 0 1 20 91 182 183 180 109 20 
0 0 0 0 13 118 221 141 191 233 239 240 234 200 143 50 3 
0 2 7 49 171 221 169 232 193 157 124 76 15 0 0 0 0 
0 0 6 39 121 211 222 147 108 164 224 237 193 117 49 7 0 
0 0 0 0 0 0 2 21 71 83 77 39 4 0 0 0 0 
11 89 177 195 224 177 121 110 107 89 57 21 2 0 0 0 15 
96 170 159 174 73 27 20 12 1 0 0 0 0 0 0 0 5 
34 113 202 224 223 238 203 131 61 19 4 0 0 0 0 0 0 
0 0 0 2 14 23 22 13 1 0 0 0 0 5 45 95 114 
104 51 14 9 9 7 5 2 0 0 0 0 4 39 77 78 73 
16 0 0 0 0 0 0 0 0 0 0 0 0 4 29 94 150 
161 135 68 24 5 0 0 0 0 0 0 0 0 0 0 0 0 
0 2 2 1 0 0 0 0 0 1 13 22 23 14 4 0 0 
0 0 0 0 0 0 0 0 2 20 33 33 20 2 0 0 0 
0 0 0 0 0 0 0 0 0 0 3 19 34 36 26 6 0 
0 0 0 0 0 0 0 0 0 0 0 0 0 0 0 0 0 
0 0 0 0 0 0 1 1 1 0 0 0 0 0 0 0 0 
0 0 0 0 0 2 3 3 1 0 0 0 0 0 0 0 